<svg class="icon" viewBox="0 0 1024 1024" xmlns="http://www.w3.org/2000/svg" width="128" height="128"><path d="M505.293 11.863l427.5 156.255v279.378c6.858 186.96-129.554 367.062-401.346 542.917l-25.73 16.627-47.088-30.16C200.55 807.64 74.09 631.3 87.319 449.256V168.361L505.293 11.803zm.303 101.824L182.831 234.625l-.06 218.09c-10.013 139.203 89.99 283.2 307.534 430.474l14.988 9.951 15.17-10.315c211.84-145.211 315.483-285.75 316.94-420.887l-.182-12.683-.061-214.387-331.564-121.181zm-17.112 84.286a177.493 177.493 0 0140.96 350.254v33.86h66.022a40.96 40.96 0 016.068 81.495l-6.068.486-66.083-.06.061 75.669a40.96 40.96 0 01-81.495 6.068l-.425-6.068v-191.45a177.554 177.554 0 0140.96-350.254zm0 81.92a95.573 95.573 0 100 191.147 95.573 95.573 0 000-191.147z"/></svg>