<svg class="icon" viewBox="0 0 1024 1024" xmlns="http://www.w3.org/2000/svg" width="128" height="128"><path d="M165.205 202.07l9.558-52.566a44.373 44.373 0 00-9.558 52.565z"/><path d="M917.504 512a365.91 365.91 0 010 47.787A178.859 178.859 0 00763.221 737.28a176.128 176.128 0 0019.115 79.19 414.379 414.379 0 01-116.053 68.266 178.859 178.859 0 00-301.739 0 414.379 414.379 0 01-116.053-68.267 178.176 178.176 0 00-136.534-256.682 374.784 374.784 0 010-47.787 422.57 422.57 0 0112.288-93.525 179.541 179.541 0 00139.947-179.542 166.57 166.57 0 00-6.144-45.056 427.35 427.35 0 01117.419-62.805A176.81 176.81 0 00512 199.339a178.176 178.176 0 00136.533-64.854A399.36 399.36 0 01765.27 199.34a170.667 170.667 0 00-6.144 45.056 180.224 180.224 0 00145.408 176.81A422.57 422.57 0 01917.504 512h90.112a501.76 501.76 0 00-23.21-148.821 45.056 45.056 0 00-43.691-31.403 90.112 90.112 0 01-87.382-92.843 96.256 96.256 0 018.875-39.594 44.373 44.373 0 00-9.557-52.566l-30.72 32.768 30.72-32.768a488.107 488.107 0 00-208.214-112.64L632.15 77.141l12.288-43.008a43.69 43.69 0 00-51.882 22.528A89.43 89.43 0 01512 106.496a90.795 90.795 0 01-80.555-49.152l-39.594 20.48 39.594-20.48a43.69 43.69 0 00-51.882-23.21 488.107 488.107 0 00-204.8 114.687l-9.558 52.566a86.699 86.699 0 018.875 37.546 90.112 90.112 0 01-90.112 92.843 45.056 45.056 0 00-43.69 31.403A501.76 501.76 0 0016.383 512a477.867 477.867 0 0010.24 99.67 45.739 45.739 0 0048.47 36.863l-4.097-45.056 4.096 45.056h8.875a90.112 90.112 0 0190.112 88.747 88.064 88.064 0 01-21.163 58.027 45.739 45.739 0 000 60.074 501.077 501.077 0 00217.771 134.486 45.056 45.056 0 0055.296-30.038l-42.325-13.653 42.325 13.653A90.795 90.795 0 01512 894.976a90.112 90.112 0 0186.016 62.123 44.373 44.373 0 0055.296 29.354l-12.97-43.008 12.287 43.008a493.568 493.568 0 00216.406-133.12 45.056 45.056 0 000-60.074A90.112 90.112 0 01937.3 645.12h8.875a45.056 45.056 0 0048.47-35.499 530.432 530.432 0 0012.97-97.621z"/><path d="M512 307.2A204.8 204.8 0 10716.8 512 204.8 204.8 0 00512 307.2zm0 316.075A112.64 112.64 0 11624.64 512 112.64 112.64 0 01512 623.275z"/></svg>