<svg class="icon" viewBox="0 0 1024 1024" xmlns="http://www.w3.org/2000/svg" width="128" height="128"><path d="M118.25 62h787.5A56.25 56.25 0 01962 118.25v787.5A56.25 56.25 0 01905.75 962h-787.5A56.25 56.25 0 0162 905.75v-787.5A56.25 56.25 0 01118.25 62zm0 56.25v787.5h787.5v-787.5zm325.804 281.142a168.057 168.057 0 01167.67 106.724l.53 1.367.397 1.062a168.147 168.147 0 019.59 76.539v.144l83.17 83.24.846.838.342.333A105.69 105.69 0 01558.02 820.034q-1.08-1.052-2.132-2.132l.17.171-83.61-83.673-2.438.243a168.048 168.048 0 01-180.563-138.808l-.44-2.699-.217-1.43-.198-1.368a168.138 168.138 0 01-1.178-34.828l.08-1.143a56.25 56.25 0 0195.865-35.646l34.46 34.45.278.27.099.09a3.14 3.14 0 004.094 0l.135-.126 19.1-19.11.252-.252.081-.09a3.167 3.167 0 00-.054-4.139l-.125-.135-.324-.333-33.704-34.324a56.25 56.25 0 0136.403-95.63zM558.74 525.154a111.825 111.825 0 00-110.961-69.602l34.387 35.017a59.381 59.381 0 010 82.593l-.693.702-19.245 19.254-.693.684a59.381 59.381 0 01-82.593 0l-.702-.684-34.63-34.63-.072.9-.072 1.044a111.888 111.888 0 00.972 22.96l.153 1.044.296 1.8a111.79 111.79 0 00125.528 91.77l1.8-.27 19.982-3.113 103.845 103.88.693.702.504.495a49.484 49.484 0 0069.466-70.375l-.99-.98L562.34 604.876l3.203-20.054.135-.9a111.897 111.897 0 00-5.992-56.43l-.378-.99zM946.183 287v56.25H108.578V287zM202.355 174.284a28.071 28.071 0 11-28.07 28.071 28.071 28.071 0 0128.07-28.07zm281.61 0a28.071 28.071 0 110 56.142H314.63a28.071 28.071 0 010-56.142h169.335z"/></svg>