<svg class="icon" viewBox="0 0 1026 1024" xmlns="http://www.w3.org/2000/svg" width="128.25" height="128"><path d="M835.813 640.447c-5.512-4.593-8.268-7.247-11.33-9.594-31.741-23.68-43.07-50.318-36.946-93.592 22.658-158.709-106.35-289.452-236.379-303.536-164.117-17.76-299.147 85.222-319.968 242.502C206.185 664.125 372.446 821.2 559.527 785.58c21.025-3.98 35.212.51 48.889 15.718 9.696 10.717 22.045 19.188 37.253 32.15-42.867 22.352-43.48 57.36-41.234 93.286 2.246 35.416-4.388 69.403-39.6 83.692-38.478 15.513-82.06 18.78-118.087-4.593-16.535-10.717-25.108-37.355-31.64-58.482-5.001-16.024-.816-34.804-1.225-52.257-.612-27.965-13.472-48.684-39.396-59.605-25.924-10.92-49.705-6.226-70.118 13.575-12.553 12.247-24.8 24.801-37.763 36.742-25.107 22.965-60.115 29.7-85.733 11.023-22.454-16.33-43.07-36.742-59.503-59.094-18.065-24.393-10.92-62.157 11.33-85.835 11.94-12.758 25.209-24.394 37.456-36.947 17.861-18.27 24.291-40.315 16.535-64.504-8.063-25.21-26.639-40.928-53.073-44.398-20.209-2.653-40.928-2.143-61.442-3.164-44.194-2.041-69.812-27.659-71.75-71.852-.613-13.575-.511-27.251 0-40.928 1.632-45.52 30.414-73.69 76.24-74.71 16.637-.408 33.273.613 49.807-.306 27.557-1.633 49.093-14.39 59.299-40.315 10.206-25.822 4.49-49.705-15.616-69.607-11.022-11.023-22.147-21.944-32.966-33.17-4.695-4.9-9.594-9.799-13.064-15.514-24.19-39.907-9.9-79.61 44.295-123.905 31.538-25.822 69.812-24.495 100.533 3.776 12.962 11.84 24.903 24.7 37.865 36.539 20.82 18.984 45.316 23.066 70.628 12.146 24.189-10.41 37.967-29.7 37.661-57.36-.102-18.473-.204-37.049 1.123-55.522 2.653-35.825 25.822-63.688 60.83-68.689 22.862-3.266 46.948-3.266 69.913 0 32.966 4.593 56.645 33.681 58.38 67.464 1.02 19.392-.919 39.09.714 58.38 2.246 27.047 14.595 47.766 41.438 58.38 27.047 10.717 49.603 3.777 69.505-15.513 8.37-8.165 16.33-16.84 24.597-25.006 5.512-5.511 10.92-11.227 17.045-16.024 39.192-30.006 82.773-17.35 129.824 37.457 28.68 33.477 26.74 73.18-4.695 104.309-12.451 12.35-25.516 24.291-36.436 37.967-17.045 21.23-22.658 45.929-9.9 70.934 11.94 23.475 32.66 35.416 59.604 35.314 16.637 0 33.273-.612 49.807.204 39.499 1.94 67.77 25.312 72.67 62.973 2.755 21.025 2.755 43.071-.103 63.994-5.103 37.355-34.497 61.544-72.77 63.075-11.738.408-23.475.817-35.11-.102-30.517-2.245-55.625 7.144-75.731 33.17zM311.82 460.305c24.19 25.312 47.868 50.93 72.567 75.629 46.95 47.255 107.983 48.684 153.197 4.286 46.643-45.826 45.928-105.737-2.96-154.115-24.903-24.7-51.44-47.663-75.016-75.323 63.177-18.78 120.332-8.47 171.568 27.251C712.418 394.678 742.73 490.21 709.56 583.19c-6.328 17.76-1.02 26.639 10.207 37.56 60.727 59.298 121.353 118.597 181.366 178.508 34.497 34.395 32.66 75.527-3.368 106.656-28.986 25.005-65.014 24.087-94.409-4.49-60.727-59.198-121.047-119.007-180.651-179.326-13.881-13.983-24.7-17.657-45.112-10.819-80.018 26.843-152.891 10.41-213.823-47.561-57.257-54.502-74.506-122.374-60.625-198.309 2.857-1.633 5.715-3.368 8.675-5.103zm540.425 355.792c-20.209 2.348-33.885 12.86-35.722 34.294-1.633 19.494 16.432 37.253 36.334 37.253 20.209 0 36.947-16.943 35.722-37.458-1.225-22.045-14.595-32.252-36.334-34.089zm0 0"/></svg>